# xmcd
#
# Track frame offsets: 
#        150
#        13993
#        31528
#        46690
#        60023
#        75144
#        93207
#        107813
#        125055
#        141413
#
# Disc length: 2140 seconds
#
# Revision: 0
# Processed by: cddbd v1.5.2PL0 Copyright (c) Steve Scherf et al.
# Submitted via: ExactAudioCopy v0.99pb5
#
DISCID=6d085a0a
DTITLE=ฝน ธนสุนทร - ฉันจะงอนแล้วนะ
DYEAR=2010
DGENRE=Country
TTITLE0=รายงานหัวใจ
TTITLE1=มีสิทธิ์แค่รอ
TTITLE2=คอยวันเธอใจเดียว
TTITLE3=ฉันจะงอนแล้วนะ
TTITLE4=แฟนฉันไม่ต้องหล่อ
TTITLE5=พัทยา
TTITLE6=ชายใจเดียว
TTITLE7=ที่รักฉันจน
TTITLE8=กลับไปถามเมี'ูก่อน
TTITLE9=ทางสายใหม่
EXTD=
EXTT0=
EXTT1=
EXTT2=
EXTT3=
EXTT4=
EXTT5=
EXTT6=
EXTT7=
EXTT8=
EXTT9=
PLAYORDER=
